<svg class="icon icon-youtube" xmlns="http://www.w3.org/2000/svg" xmlns:xlink="http://www.w3.org/1999/xlink" viewBox="0 0 37.56 37.56"><defs><style>.cls-1{fill:none;}.cls-2{clip-path:url(#clip-path);}.cls-3{fill:#f8e08e;}</style><clipPath id="clip-path" transform="translate(0 0)"><rect class="cls-1" width="37.56" height="37.56"/></clipPath></defs><g id="Layer_2" data-name="Layer 2"><g id="Layer_1-2" data-name="Layer 1"><g id="Artwork_3" data-name="Artwork 3"><g class="cls-2"><g class="cls-2"><path class="cls-3" d="M16,22.92l7.33-4.19L16,14.53ZM29,0H8.59A8.6,8.6,0,0,0,0,8.59V29a8.6,8.6,0,0,0,8.59,8.6H29a8.6,8.6,0,0,0,8.6-8.6V8.59A8.6,8.6,0,0,0,29,0m2.62,26.69c-1,1.25-2.74,1.52-4.79,1.58-3.64.12-7.72.12-8,.12s-4.4,0-8-.12c-2.06-.06-3.82-.33-4.8-1.58-1.51-1.91-1.25-8-1.25-8s-.26-6.12,1.25-8C6.9,9.36,8.66,9.1,10.72,9c3.63-.12,7.71-.12,8-.12s4.4,0,8,.12c2.05.07,3.82.33,4.79,1.58,1.51,1.92,1.25,8,1.25,8s.26,6.13-1.25,8" transform="translate(0 0)"/></g></g></g></g></g></svg>