<svg class="icon icon-instagram" xmlns="http://www.w3.org/2000/svg" viewBox="0 0 38.73 38.73"><defs><style>.cls-1{fill:#f8e08e;}</style></defs><g id="Layer_2" data-name="Layer 2"><g id="Layer_1-2" data-name="Layer 1"><path class="cls-1" d="M27.54,3.9H11.19A7.3,7.3,0,0,0,3.9,11.19V27.54a7.31,7.31,0,0,0,7.29,7.3H27.54a7.32,7.32,0,0,0,7.3-7.3V11.19A7.31,7.31,0,0,0,27.54,3.9ZM19.37,29.17a9.81,9.81,0,1,1,9.8-9.8A9.82,9.82,0,0,1,19.37,29.17Zm10-17.81a2.29,2.29,0,1,1,2.29-2.28A2.28,2.28,0,0,1,29.36,11.36Zm9.37,16.18A11.2,11.2,0,0,1,27.54,38.73H11.19A11.2,11.2,0,0,1,0,27.54V11.19A11.2,11.2,0,0,1,11.19,0H27.54A11.2,11.2,0,0,1,38.73,11.19ZM19.37,12.82a6.55,6.55,0,1,0,6.54,6.55A6.56,6.56,0,0,0,19.37,12.82Z"/></g></g></svg>