<!--<svg xmlns="http://www.w3.org/2000/svg" fill="none" class="icon icon-cart-empty" viewBox="0 0 40 40"><path fill="currentColor" fill-rule="evenodd" d="M15.75 11.8h-3.16l-.77 11.6a5 5 0 0 0 4.99 5.34h7.38a5 5 0 0 0 4.99-5.33L28.4 11.8zm0 1h-2.22l-.71 10.67a4 4 0 0 0 3.99 4.27h7.38a4 4 0 0 0 4-4.27l-.72-10.67h-2.22v.63a4.75 4.75 0 1 1-9.5 0zm8.5 0h-7.5v.63a3.75 3.75 0 1 0 7.5 0z"/></svg>-->
<svg xmlns="http://www.w3.org/2000/svg" class="icon icon-cart" width="24" height="24" viewBox="0 0 24 24"><path fill="currentColor" d="M17 18a2 2 0 0 1 2 2a2 2 0 0 1-2 2a2 2 0 0 1-2-2c0-1.11.89-2 2-2M1 2h3.27l.94 2H20a1 1 0 0 1 1 1c0 .17-.05.34-.12.5l-3.58 6.47c-.34.61-1 1.03-1.75 1.03H8.1l-.9 1.63l-.03.12a.25.25 0 0 0 .25.25H19v2H7a2 2 0 0 1-2-2c0-.35.09-.68.24-.96l1.36-2.45L3 4H1zm6 16a2 2 0 0 1 2 2a2 2 0 0 1-2 2a2 2 0 0 1-2-2c0-1.11.89-2 2-2m9-7l2.78-5H6.14l2.36 5z"/></svg>