<svg class="icon icon-facebook" xmlns="http://www.w3.org/2000/svg" viewBox="0 0 37.9 37.9"><defs><style>.cls-1{fill:#f8e08e;}</style></defs><g id="Layer_2" data-name="Layer 2"><g id="Layer_1-2" data-name="Layer 1"><path class="cls-1" d="M29.53,0H8.37A8.37,8.37,0,0,0,0,8.37V29.53A8.37,8.37,0,0,0,8.37,37.9h9.1V25.14H12.31V19.28h5.16V14.42a7.58,7.58,0,0,1,7.59-7.58L29.52,7v5.48l-3-.08A2.55,2.55,0,0,0,24,14.94v4.34h5.55l-.93,5.86H24V37.9h5.56a8.37,8.37,0,0,0,8.37-8.37V8.37A8.37,8.37,0,0,0,29.53,0Z"/></g></g></svg>